<svg width="322" height="82" viewBox="0 0 322 82" fill="none" xmlns="http://www.w3.org/2000/svg">
<g clip-path="url(#clip0_5776_3170)">
<path d="M203.426 33.4047C203.633 34.2756 203.862 35.1098 204.107 35.9044C204.333 36.7201 204.598 37.4964 204.864 38.2542L207.835 46.4008H210.314V28.271H207.664V35.0335C207.664 36.0386 207.722 37.1175 207.816 38.2542C207.929 39.3725 208.082 40.6408 208.289 42.0433C207.703 39.733 207.022 37.5543 206.265 35.5071L203.615 28.271H201.154V46.4008H203.786L203.633 38.52V37.8937C203.615 37.7227 203.615 37.5727 203.615 37.4385L203.462 35.2019L203.313 33.3442C203.313 33.2494 203.294 33.1179 203.276 32.9652C203.257 32.8337 203.239 32.6626 203.218 32.4548C203.276 32.6626 203.313 32.8337 203.349 32.9863C203.386 33.1573 203.407 33.2889 203.426 33.4021V33.4047Z" fill="#416B9A"/>
<path d="M298.244 35.0335C298.244 36.0386 298.299 37.1175 298.393 38.2542C298.488 39.3725 298.659 40.6408 298.867 42.0433C298.28 39.733 297.599 37.5543 296.842 35.5071L294.192 28.271H291.713V46.4008H294.345L294.211 38.52C294.211 38.2726 294.211 38.0832 294.192 37.8937V37.4385L294.021 35.2019L293.89 33.3442C293.89 33.2494 293.871 33.1179 293.853 32.9652C293.835 32.8337 293.816 32.6626 293.795 32.4548C293.832 32.6626 293.89 32.8337 293.929 32.9863C293.966 33.1573 293.984 33.2889 294.005 33.4021C294.213 34.273 294.442 35.1071 294.668 35.9018C294.915 36.7175 295.181 37.4938 295.444 38.2516L298.414 46.3982H300.894V28.2683H298.244V35.0308V35.0335Z" fill="#416B9A"/>
<path d="M217.47 46.4008V30.4102H220.444V28.271H211.791V30.4102H214.859V46.4008H217.47Z" fill="#416B9A"/>
<path d="M307.159 28.271L302.863 46.4008H305.418L306.176 42.859H310.074L310.813 46.4008H313.445L309.225 28.271H307.161H307.159ZM306.554 40.9829L307.027 38.6726C307.293 37.4227 307.501 36.2281 307.69 35.1098C307.879 33.9915 308.029 32.8942 308.163 31.7943C308.41 34.0309 308.713 36.1334 309.11 38.1042L309.696 40.9829H306.554Z" fill="#416B9A"/>
<path d="M228.962 30.3366V28.271H221.9V46.4008H228.962V44.3352H224.55V38.1595H228.468V36.0939H224.55V30.3366H228.962Z" fill="#416B9A"/>
<path d="M317.665 44.3352V28.271H315.015V46.4008H322V44.3352H317.665Z" fill="#416B9A"/>
<path d="M276.417 28.271H273.767V46.4008H276.417V28.271Z" fill="#416B9A"/>
<path d="M198.125 28.271H195.475V46.4008H198.125V28.271Z" fill="#416B9A"/>
<path d="M236.741 37.5911C237.612 37.4017 238.274 36.928 238.747 36.1334C239.221 35.3387 239.468 34.2967 239.468 32.9889C239.468 31.3023 239.013 30.0524 238.124 29.2182C237.425 28.592 236.344 28.271 234.888 28.271H231.404V46.4008H234.054V37.5332L237.669 46.4008H240.356L236.741 37.5911ZM234.054 36.3018V30.276H234.509C234.925 30.276 235.285 30.3339 235.569 30.4471C235.871 30.5786 236.118 30.7497 236.308 31.0154C236.515 31.2628 236.649 31.5838 236.744 31.9811C236.839 32.3785 236.875 32.8705 236.875 33.4205C236.875 34.4625 236.668 35.2203 236.231 35.6571C235.816 36.0939 235.077 36.3018 234.054 36.3018Z" fill="#416B9A"/>
<path d="M257.808 28.271L253.512 46.4008H256.068L256.825 42.859H260.724L261.463 46.4008H264.094L259.872 28.271H257.808ZM257.204 40.9829L257.677 38.6726C257.942 37.4227 258.15 36.2281 258.339 35.1098C258.529 33.9915 258.681 32.8942 258.813 31.7943C259.06 34.0309 259.362 36.1334 259.759 38.1042L260.345 40.9829H257.204Z" fill="#416B9A"/>
<path d="M248.932 35.0335C248.932 36.0386 248.99 37.1175 249.085 38.2542C249.18 39.3725 249.35 40.6408 249.558 42.0433C248.972 39.733 248.291 37.5543 247.534 35.5071L244.884 28.271H242.404V46.4008H245.036L244.905 38.52C244.905 38.2726 244.905 38.0832 244.886 37.8937C244.886 37.7227 244.886 37.5727 244.868 37.4385L244.715 35.2019L244.584 33.3442C244.584 33.2494 244.565 33.1179 244.547 32.9652C244.529 32.8337 244.51 32.6626 244.492 32.4548C244.529 32.6626 244.587 32.8337 244.623 32.9863C244.66 33.1573 244.681 33.2889 244.7 33.4021C244.907 34.273 245.136 35.1071 245.362 35.9018C245.609 36.7175 245.875 37.4938 246.138 38.2516L249.109 46.3982H251.588V28.2683H248.938V35.0308L248.932 35.0335Z" fill="#416B9A"/>
<path d="M287.811 29.5972C287.017 28.5551 285.787 28.0447 284.139 28.0447C282.303 28.0447 280.978 28.7078 280.221 30.0524C279.446 31.397 279.067 33.6889 279.067 36.9096C279.067 40.5093 279.446 43.0301 280.221 44.451C281.015 45.9087 282.361 46.6297 284.273 46.6297C286.184 46.6297 287.396 45.9666 288.153 44.6036C288.929 43.259 289.326 40.9855 289.326 37.8016C289.326 35.5097 289.213 33.7652 288.966 32.5732C288.718 31.2838 288.34 30.2997 287.811 29.5998V29.5972ZM286.05 43.0301C285.711 43.9405 285.103 44.3931 284.215 44.3931C283.326 44.3931 282.682 43.9195 282.34 42.9353C282.019 41.9118 281.849 40.0751 281.849 37.4411C281.849 34.5414 282.019 32.6284 282.322 31.6627C282.624 30.7155 283.268 30.2418 284.215 30.2418C285.161 30.2418 285.766 30.7734 286.089 31.7943C286.392 32.8179 286.544 34.9019 286.544 38.0463C286.544 40.4724 286.373 42.138 286.052 43.0301H286.05Z" fill="#416B9A"/>
<path d="M263.658 30.4102H266.726V46.4008H269.337V30.4102H272.31V28.271H263.658V30.4102Z" fill="#416B9A"/>
<path d="M255.045 53.8475H252.395V72.0168H259.38V69.9512H255.045V53.8475Z" fill="#416B9A"/>
<path d="M248.249 55.192C247.455 54.1316 246.222 53.6185 244.576 53.6185C242.741 53.6185 241.416 54.3 240.638 55.6446C239.88 56.9892 239.502 59.2627 239.502 62.5019C239.502 66.1199 239.88 68.6408 240.656 70.0617C241.432 71.501 242.796 72.2404 244.707 72.2404C246.619 72.2404 247.812 71.5589 248.588 70.2143C249.364 68.8697 249.761 66.5778 249.761 63.3755C249.761 61.0836 249.629 59.339 249.4 58.1654C249.153 56.8761 248.775 55.8736 248.246 55.192H248.249ZM246.469 68.6434C246.148 69.5512 245.523 70.0064 244.634 70.0064C243.745 70.0064 243.101 69.5144 242.778 68.5487C242.457 67.5251 242.286 65.67 242.286 63.0176C242.286 60.1389 242.436 58.2049 242.759 57.2576C243.062 56.3104 243.706 55.8367 244.634 55.8367C245.562 55.8367 246.203 56.3472 246.508 57.3892C246.829 58.4128 246.982 60.4968 246.982 63.6412C246.982 66.0673 246.811 67.7329 246.469 68.6434Z" fill="#416B9A"/>
<path d="M206.265 55.9867C205.3 57.5602 204.808 59.9837 204.808 63.2229C204.808 69.2275 206.796 72.2404 210.79 72.2404C211.584 72.2404 212.304 72.0694 212.927 71.7484V69.4933C212.322 69.7407 211.791 69.8722 211.376 69.8722C208.878 69.8722 207.627 67.6172 207.627 63.1465C207.627 61.8967 207.703 60.8152 207.835 59.9074C207.987 58.9785 208.195 58.2418 208.497 57.6339C208.781 57.0471 209.16 56.6103 209.614 56.3077C210.051 56.0236 210.598 55.892 211.223 55.892C211.678 55.892 212.246 56.0446 212.927 56.3472V54.15C212.209 53.7896 211.489 53.6001 210.732 53.6001C208.726 53.6001 207.248 54.3948 206.265 55.9867Z" fill="#416B9A"/>
<path d="M200.189 62.1835C199.603 61.652 199.13 61.1783 198.769 60.7994C198.391 60.4205 198.125 60.0995 197.954 59.8521C197.652 59.4153 197.481 58.868 197.481 58.2233C197.481 57.5024 197.71 56.934 198.162 56.4998C198.596 56.0446 199.164 55.8183 199.866 55.8183C200.51 55.8183 201.209 56.0841 202.024 56.613V54.2264C201.172 53.8106 200.284 53.6001 199.337 53.6001C197.975 53.6001 196.895 54.0158 196.083 54.8684C195.286 55.6841 194.889 56.8208 194.889 58.2418C194.889 59.2838 195.097 60.1547 195.494 60.8573C195.72 61.1994 196.043 61.6151 196.477 62.0888C196.932 62.5624 197.479 63.0939 198.162 63.6991C198.578 64.1149 198.956 64.4754 199.24 64.799C199.524 65.12 199.75 65.4042 199.921 65.67C200.223 66.1805 200.394 66.7699 200.394 67.4303C200.394 68.1882 200.187 68.796 199.771 69.2486C199.374 69.6828 198.806 69.9117 198.086 69.9117C197.31 69.9117 196.44 69.5907 195.494 68.946V71.3694C196.309 71.9378 197.274 72.2404 198.391 72.2404C199.734 72.2404 200.852 71.7852 201.685 70.9142C202.537 69.9854 202.973 68.8302 202.973 67.4277C202.973 66.4041 202.784 65.5332 202.387 64.8122C201.99 64.0728 201.27 63.2018 200.192 62.1782L200.189 62.1835Z" fill="#416B9A"/>
<path d="M235.755 55.192C234.961 54.1316 233.731 53.6185 232.083 53.6185C230.248 53.6185 228.922 54.3 228.165 55.6446C227.39 56.9892 227.011 59.2627 227.011 62.5019C227.011 66.1199 227.39 68.6408 228.165 70.0617C228.959 71.501 230.305 72.2404 232.217 72.2404C234.128 72.2404 235.34 71.5589 236.097 70.2143C236.873 68.8697 237.27 66.5778 237.27 63.3755C237.27 61.0836 237.157 59.339 236.91 58.1654C236.662 56.8761 236.287 55.8736 235.755 55.192ZM233.994 68.6434C233.655 69.5512 233.047 70.0064 232.159 70.0064C231.27 70.0064 230.626 69.5144 230.284 68.5487C229.964 67.5251 229.793 65.67 229.793 63.0176C229.793 60.1389 229.964 58.2049 230.266 57.2576C230.568 56.3104 231.212 55.8367 232.159 55.8367C233.105 55.8367 233.71 56.3472 234.033 57.3892C234.336 58.4128 234.488 60.4968 234.488 63.6412C234.488 66.0673 234.317 67.7329 233.997 68.6434H233.994Z" fill="#416B9A"/>
<path d="M221.711 60.952H217.83V53.8475H215.162V72.0168H217.83V63.0176H221.711V72.0168H224.361V53.8475H221.711V60.952Z" fill="#416B9A"/>
<path d="M244.295 21.0532C245.885 21.0532 247.097 20.6559 247.873 19.8586C248.535 19.1587 248.856 17.8325 248.856 15.8432V2.67606H246.243V15.8432C246.243 17.0168 246.13 17.8141 245.864 18.193C245.617 18.5719 245.107 18.7614 244.332 18.7614C243.556 18.7614 243.043 18.5351 242.78 18.0983C242.515 17.6825 242.402 16.8089 242.402 15.5038V2.67606H239.788V15.5011C239.788 17.472 240.054 18.8166 240.546 19.5165C241.266 20.5401 242.515 21.0506 244.295 21.0506V21.0532Z" fill="#416B9A"/>
<path d="M232.424 21.0532C234.241 21.0532 235.471 20.4086 236.134 19.1403C236.815 17.9088 237.157 15.5222 237.157 11.9778V11.2779H232.33V13.3435H234.638V14.196C234.638 15.8248 234.467 17.0194 234.107 17.7588C233.768 18.4403 233.179 18.7824 232.345 18.7824C231.417 18.7824 230.794 18.3088 230.471 17.3246C230.129 16.3589 229.958 14.5012 229.958 11.7541C229.958 9.00703 230.129 7.14931 230.45 6.08889C230.771 5.08372 231.378 4.57324 232.267 4.57324C232.911 4.57324 233.384 4.7627 233.705 5.14161C233.876 5.31265 234.025 5.57841 234.16 5.89943C234.291 6.22045 234.425 6.62041 234.538 7.09405L236.999 6.14678C236.602 4.82059 236.034 3.87331 235.295 3.28652C234.575 2.71816 233.555 2.43398 232.267 2.43398C230.581 2.43398 229.314 3.02076 228.499 4.21538C227.647 5.46526 227.211 8.00449 227.211 11.812C227.211 15.1459 227.608 17.5141 228.383 18.935C229.198 20.3375 230.524 21.0559 232.416 21.0559L232.424 21.0532Z" fill="#416B9A"/>
<path d="M225.176 18.7587H220.764V12.5646H224.682V10.4806H220.764V4.73902H225.176V2.67606H218.114V20.8243H225.176V18.7587Z" fill="#416B9A"/>
<path d="M209.294 17.2825H213.193L213.931 20.8243H216.563L212.343 2.67343H210.261L205.984 20.8243H208.539L209.296 17.2825H209.294ZM210.146 13.0566C210.393 11.8068 210.619 10.6121 210.808 9.49382C210.997 8.37551 211.147 7.27825 211.263 6.19677C211.51 8.4334 211.831 10.5358 212.228 12.4856L212.814 15.3854H209.654L210.146 13.054V13.0566Z" fill="#416B9A"/>
<path d="M202.763 19.6323C203.56 19.0061 204.106 18.0798 204.448 16.8668C204.808 15.6169 204.979 13.9881 204.979 11.9778C204.979 9.79906 204.808 8.1308 204.506 6.95722C204.185 5.74418 203.654 4.77849 202.916 4.02067C202.424 3.51019 201.856 3.16812 201.23 2.97866C200.568 2.77079 199.734 2.67606 198.751 2.67606H195.475V20.8269H197.613C200.092 20.8269 201.796 20.4296 202.76 19.6323H202.763ZM198.125 4.72323H198.464C199.884 4.72323 200.867 5.25476 201.38 6.29676C201.93 7.35719 202.195 9.27016 202.195 12.0752C202.195 14.6696 201.911 16.4326 201.343 17.322C200.831 18.2325 199.753 18.685 198.125 18.685V4.7206V4.72323Z" fill="#416B9A"/>
<path d="M147.187 2.59975H137.817V72.1852H147.187V2.59975Z" fill="#416B9A"/>
<path d="M121.232 7.77031C119.492 5.85733 117.504 4.51272 115.288 3.7549C112.885 2.97866 109.93 2.58133 106.41 2.58133H94.8811V72.1878H102.453C111.218 72.1878 117.294 70.6721 120.701 67.6409C123.465 65.1964 125.434 61.673 126.646 57.0498C127.876 52.2002 128.481 45.9482 128.481 38.3121C128.481 29.9576 127.931 23.5346 126.814 19.0455C125.697 14.4223 123.843 10.6727 121.23 7.77294L121.232 7.77031ZM115.685 58.7917C113.774 62.2598 109.948 63.9833 104.251 63.9833V10.4806H105.424C110.458 10.4806 113.942 12.4883 115.817 16.5247C117.709 20.5612 118.656 27.9289 118.656 38.6726C118.656 48.6374 117.673 55.3447 115.685 58.7917Z" fill="#416B9A"/>
<path d="M174.577 34.5598C172.513 32.4758 170.809 30.7128 169.502 29.2367C168.196 27.7789 167.268 26.5659 166.702 25.637C165.585 23.8951 165.036 21.79 165.036 19.3666C165.036 16.601 165.811 14.3828 167.365 12.7356C168.937 10.9937 170.943 10.1201 173.404 10.1201C175.694 10.1201 178.268 11.1437 181.107 13.1882V4.03908C178.079 2.44713 174.897 1.63405 171.566 1.63405C166.758 1.63405 162.917 3.24442 160.077 6.46517C157.256 9.64907 155.836 13.9671 155.836 19.406C155.836 23.4425 156.557 26.7764 157.995 29.4287C158.752 30.7734 159.906 32.3469 161.478 34.1651C163.03 35.965 164.999 38.0305 167.365 40.3593C168.898 41.8933 170.186 43.2774 171.209 44.5273C172.231 45.7772 173.025 46.8771 173.593 47.8428C174.692 49.8689 175.26 52.1239 175.26 54.6632C175.26 57.5629 174.54 59.8732 173.102 61.5783C171.645 63.2834 169.655 64.1175 167.102 64.1175C164.376 64.1175 161.329 62.9045 157.998 60.481V69.7643C160.819 71.9615 164.226 73.0614 168.219 73.0614C172.97 73.0614 176.869 71.3563 179.898 67.9645C182.927 64.478 184.441 60.0258 184.441 54.6658C184.441 50.6872 183.76 47.3349 182.377 44.6062C180.994 41.7828 178.402 38.4489 174.579 34.5651L174.577 34.5598Z" fill="#416B9A"/>
<path d="M42.2599 5.18371C41.7841 3.50493 40.643 2.12085 38.9631 1.18146C36.6942 -0.0868344 33.7575 -0.347336 30.9102 0.460481C25.8019 1.91034 22.5812 6.38886 23.7301 10.4437C24.206 12.1225 25.347 13.5066 27.027 14.446C29.2959 15.7143 32.2326 15.9748 35.0799 15.167C40.1882 13.7171 43.4088 9.23595 42.2599 5.18371ZM34.7697 14.0697C32.2089 14.7959 29.5904 14.5723 27.5844 13.4513C26.1752 12.6646 25.2235 11.5173 24.8317 10.1359C23.8537 6.6862 26.722 2.8392 31.2257 1.56038C33.7864 0.83413 36.405 1.06042 38.4136 2.17874C39.8228 2.9655 40.7745 4.11276 41.1689 5.49421C42.1469 8.94388 39.2786 12.7909 34.7749 14.0697H34.7697Z" fill="#0E3C84"/>
<path d="M24.1929 9.33594C22.9414 8.12027 21.2641 7.49138 19.3396 7.52033C16.742 7.5598 14.0682 8.79915 12.0044 10.9279C9.94058 13.054 8.77852 15.7643 8.81796 18.3667C8.84688 20.2928 9.52255 21.9531 10.774 23.1688C12.0254 24.3845 13.7028 25.0134 15.6273 24.9844C18.2248 24.945 20.8986 23.7056 22.9624 21.5795C25.0263 19.4534 26.1883 16.7405 26.1489 14.1407C26.12 12.2172 25.4443 10.5569 24.1929 9.33858V9.33594ZM22.1448 20.7796C20.2913 22.6899 17.9093 23.8056 15.6115 23.8398C13.9973 23.8635 12.5986 23.3478 11.5706 22.3452C10.54 21.3453 9.98264 19.9612 9.95898 18.3456C9.9248 16.0458 10.9686 13.6303 12.8221 11.7199C14.6756 9.80958 17.0575 8.6939 19.3553 8.65969C20.9696 8.63601 22.3683 9.15175 23.3962 10.1543C24.4268 11.1542 24.9842 12.5383 25.0079 14.1539C25.0421 16.4537 23.9983 18.8692 22.1422 20.7796H22.1448Z" fill="#0E3C84"/>
<path d="M10.6189 21.9742C8.92838 21.5479 7.16163 21.8426 5.50794 22.8294C3.27584 24.1635 1.58008 26.5764 0.857084 29.4498C0.131456 32.3232 0.481125 35.2519 1.81407 37.4859C2.79998 39.1383 4.21443 40.2382 5.90756 40.6645C7.59806 41.0908 9.36744 40.7961 11.0185 39.8093C13.2506 38.4752 14.9437 36.0623 15.6694 33.1889C16.395 30.3155 16.0453 27.3842 14.7124 25.1528C13.7265 23.5004 12.3094 22.4005 10.6189 21.9742ZM14.5625 32.91C13.9105 35.494 12.4067 37.6516 10.4322 38.8305C9.04669 39.6593 7.57703 39.9119 6.18624 39.5593C4.79283 39.2094 3.62025 38.2884 2.79209 36.9017C1.61426 34.9256 1.31192 32.3127 1.96393 29.7313C2.61594 27.1474 4.11978 24.9897 6.09422 23.8109C7.47975 22.982 8.94941 22.732 10.3402 23.082C11.731 23.432 12.9062 24.3529 13.7317 25.7396C14.9096 27.7131 15.2119 30.3287 14.5625 32.9126V32.91Z" fill="#0E3C84"/>
<path d="M5.1793 39.7093C3.50194 40.1856 2.11904 41.325 1.18046 43.0064C-0.0867594 45.2772 -0.347039 48.2164 0.460091 51.0661C1.26722 53.9185 3.03397 56.2788 5.30287 57.5471C6.98285 58.4865 8.75749 58.7286 10.4348 58.2523C12.1122 57.776 13.4951 56.634 14.4337 54.9526C15.6983 52.6818 15.9612 49.7426 15.1541 46.8929C14.3443 44.0405 12.5802 41.6776 10.3113 40.4119C8.63129 39.4751 6.85666 39.2304 5.1793 39.7067V39.7093ZM14.0577 47.206C14.7834 49.7689 14.5599 52.3897 13.4399 54.3974C12.6538 55.8078 11.5075 56.763 10.1272 57.155C8.74697 57.5471 7.27205 57.3392 5.86023 56.5524C3.85424 55.4315 2.28468 53.3185 1.55905 50.7583C0.833421 48.1954 1.05952 45.5746 2.17688 43.5642C2.96298 42.1538 4.10926 41.2013 5.48953 40.8092C6.8698 40.4172 8.34472 40.625 9.75391 41.4118C11.7599 42.5327 13.3295 44.6457 14.0551 47.2086L14.0577 47.206Z" fill="#0E3C84"/>
<path d="M9.328 57.7918C8.11336 59.0443 7.48501 60.7231 7.51393 62.6492C7.55337 65.249 8.79167 67.925 10.916 69.9906C13.0403 72.0562 15.7482 73.2193 18.3484 73.1798C20.2729 73.1509 21.9318 72.4746 23.1465 71.2221C26.0805 68.1987 25.3681 62.7255 21.5585 59.0233C19.4342 56.9577 16.7236 55.7946 14.1261 55.8341C12.2042 55.863 10.5453 56.5393 9.33063 57.7918H9.328ZM20.7619 59.8416C24.1192 63.1045 24.8212 67.854 22.3262 70.4248C21.3245 71.4563 19.9443 72.0141 18.33 72.0378C16.0322 72.072 13.6187 71.0274 11.71 69.1697C9.80123 67.3146 8.6865 64.9306 8.65232 62.6308C8.62866 61.0152 9.14396 59.6179 10.1456 58.5865C11.1447 57.555 12.5276 56.9971 14.1419 56.9735C16.4397 56.9393 18.8532 57.9839 20.7619 59.839V59.8416Z" fill="#0E3C84"/>
<path d="M21.9555 71.3747C21.5296 73.0666 21.8241 74.8375 22.81 76.49C24.1429 78.7214 26.5538 80.4186 29.4247 81.1448C32.2957 81.8711 35.2219 81.5211 37.454 80.1896C39.105 79.2029 40.204 77.7846 40.6325 76.0927C41.6631 72.0062 38.3111 67.6251 33.1633 66.3252C30.2897 65.6016 27.3635 65.9489 25.1341 67.283C23.483 68.2697 22.384 69.6854 21.9581 71.38L21.9555 71.3747ZM32.882 67.4277C37.4198 68.5723 40.4012 72.3325 39.5257 75.8111C39.1734 77.2057 38.2558 78.3793 36.8703 79.2082C34.8959 80.387 32.2852 80.6896 29.7061 80.037C27.1243 79.3845 24.9684 77.8793 23.7906 75.9032C22.9624 74.5165 22.7101 73.0456 23.0623 71.6536C23.4146 70.259 24.3322 69.0854 25.7177 68.2592C27.6895 67.0804 30.3029 66.7778 32.8846 67.4277H32.882Z" fill="#0E3C84"/>
<path d="M39.6755 76.8216C40.8245 80.8764 45.917 82.9946 51.0253 81.5448C53.8726 80.737 56.2335 78.9687 57.5007 76.6979C58.4393 75.0165 58.6812 73.2403 58.2053 71.5589C57.0564 67.504 51.9639 65.3858 46.8556 66.8383C41.7473 68.2908 38.5266 72.7693 39.6755 76.8216ZM47.1658 67.9356C51.6694 66.6567 56.1284 68.4224 57.1064 71.872C57.4981 73.2535 57.2904 74.7296 56.5017 76.1427C55.3817 78.1504 53.2705 79.7213 50.7124 80.4475C46.2088 81.7263 41.7499 79.9607 40.7719 76.5111C39.7939 73.0614 42.6622 69.217 47.1658 67.9382V67.9356Z" fill="#0E3C84"/>
<path d="M57.7426 72.6693C60.7635 75.6059 66.232 74.8928 69.9311 71.08C71.9949 68.9539 73.157 66.2436 73.1175 63.6439C73.0886 61.7177 72.4129 60.0574 71.1615 58.8417C68.1407 55.9051 62.6722 56.6182 58.973 60.431C56.9092 62.5571 55.7472 65.27 55.7866 67.8698C55.8155 69.7933 56.4912 71.4536 57.7426 72.6719V72.6693ZM59.7907 61.2257C63.0508 57.8655 67.7963 57.1629 70.3649 59.6574C71.3955 60.6599 71.9528 62.0414 71.9765 63.657C72.0107 65.9568 70.9669 68.3724 69.1108 70.2827C65.8507 73.6429 61.1052 74.3455 58.5366 71.8483C57.506 70.8484 56.9487 69.4644 56.925 67.8487C56.8908 65.549 57.9346 63.1334 59.7881 61.223L59.7907 61.2257Z" fill="#0E3C84"/>
<path d="M71.314 60.0311C73.0045 60.4573 74.7738 60.1626 76.4249 59.1759C78.657 57.8418 80.3501 55.4289 81.0758 52.5555C81.8014 49.6821 81.4517 46.7534 80.1214 44.522C79.1355 42.8696 77.7184 41.7697 76.0279 41.3408C74.3348 40.9145 72.568 41.2092 70.917 42.1986C68.6849 43.5326 66.9918 45.9456 66.2661 48.819C65.5431 51.6924 65.8902 54.6237 67.2231 56.8551C68.209 58.5075 69.6235 59.6074 71.3166 60.0337L71.314 60.0311ZM67.3703 49.0953C68.0197 46.5139 69.5262 44.3563 71.498 43.1748C72.8835 42.3459 74.3532 42.0933 75.744 42.4459C77.1374 42.7985 78.31 43.7168 79.1381 45.1062C80.316 47.0797 80.6183 49.6952 79.9663 52.2765C79.3143 54.8579 77.8104 57.0156 75.8386 58.197C74.4531 59.0259 72.9834 59.2785 71.5927 58.9259C70.2019 58.5759 69.0267 57.655 68.2011 56.2683C67.0233 54.2948 66.721 51.6792 67.3703 49.0979V49.0953Z" fill="#0E3C84"/>
<path d="M76.7562 42.2959C78.4335 41.8197 79.8164 40.6803 80.7524 38.9989C82.0196 36.728 82.2799 33.7889 81.4728 30.9365C80.6656 28.0868 78.9015 25.7238 76.6326 24.4555C74.9526 23.5162 73.178 23.2741 71.498 23.7503C67.4466 24.9002 65.3302 29.9971 66.7814 35.1098C67.5912 37.9621 69.3553 40.3251 71.6242 41.5907C73.3042 42.5275 75.0788 42.7722 76.7562 42.2959ZM67.8778 34.7993C66.6 30.2918 68.3641 25.8291 71.8082 24.8502C73.1911 24.4582 74.6661 24.666 76.0752 25.4554C78.0812 26.5764 79.6482 28.6893 80.3738 31.2496C81.0994 33.8125 80.8733 36.4333 79.756 38.4437C78.9699 39.8541 77.8236 40.8066 76.4433 41.1987C75.0631 41.5907 73.5881 41.3829 72.1789 40.5961C70.173 39.4751 68.6034 37.3622 67.8778 34.7993Z" fill="#0E3C84"/>
<path d="M72.6075 24.2135C75.5415 21.1901 74.8291 15.7195 71.0195 12.0146C68.8952 9.94904 66.1873 8.78863 63.5897 8.82547C61.6652 8.85441 60.0063 9.53066 58.7916 10.7832C57.577 12.0357 56.9486 13.7171 56.9776 15.6406C57.017 18.2403 58.2553 20.9164 60.3822 22.982C64.1918 26.6843 69.6787 27.2368 72.6127 24.2135H72.6075ZM61.1736 22.1637C59.2649 20.3086 58.1501 17.9246 58.116 15.6248C58.0923 14.0092 58.6076 12.6119 59.6093 11.5805C60.611 10.549 61.9912 9.99114 63.6081 9.96746C65.9059 9.93325 68.3168 10.9779 70.2255 12.833C73.5829 16.0958 74.2848 20.8454 71.7898 23.4162C69.2948 25.987 64.5336 25.4265 61.1736 22.161V22.1637Z" fill="#0E3C84"/>
<path d="M59.98 10.6279C61.0106 6.54147 57.6585 2.16032 52.5107 0.860443C49.6398 0.134197 46.7136 0.484163 44.4841 1.81561C42.8331 2.80236 41.7341 4.22065 41.3056 5.91259C40.8797 7.60716 41.1741 9.37541 42.16 11.0279C43.493 13.2619 45.9039 14.9565 48.7748 15.6827C53.9226 16.9826 58.9494 14.7144 59.98 10.6279ZM49.0535 14.5749C46.4744 13.925 44.3185 12.4172 43.1381 10.4437C42.3099 9.05702 42.0575 7.58611 42.4098 6.19414C42.7621 4.79954 43.6796 3.62597 45.0652 2.7971C47.037 1.61826 49.6503 1.31566 52.2294 1.96823C56.7672 3.11549 59.7486 6.87565 58.8731 10.349C57.9977 13.825 53.5913 15.7195 49.0535 14.5749Z" fill="#0E3C84"/>
<path d="M42.4348 77.6052C62.6871 76.7946 78.4483 59.7058 77.6385 39.4362C76.8286 19.1666 59.7543 3.39196 39.5019 4.20253C19.2496 5.0131 3.48837 22.1019 4.29825 42.3715C5.10812 62.6411 22.1824 78.4158 42.4348 77.6052Z" fill="white"/>
<path d="M78.3783 40.9066C78.3783 20.2586 61.5942 3.46282 40.9664 3.46282C20.3386 3.46282 3.55452 20.2612 3.55452 40.9066C3.55452 61.552 20.3386 78.3504 40.9664 78.3504C61.5942 78.3504 78.3783 61.552 78.3783 40.9066ZM40.9664 76.9242C21.1247 76.9242 4.97949 60.7678 4.97949 40.9066C4.97949 21.0453 21.1247 4.89163 40.9664 4.89163C60.8081 4.89163 76.9534 21.048 76.9534 40.9092C76.9534 60.7705 60.8108 76.9268 40.9664 76.9268V76.9242Z" fill="#0E3C84"/>
<path d="M68.9189 41.0013C68.9189 25.5502 56.4044 13.0251 40.9664 13.0251C25.5284 13.0251 13.014 25.5502 13.014 41.0013C13.014 56.4525 25.5284 68.9776 40.9664 68.9776C56.4044 68.9776 68.9189 56.4525 68.9189 41.0013Z" fill="url(#paint0_radial_5776_3170)"/>
<path d="M12.5223 52.6528L13.0666 54.3263H14.8254L13.4005 55.3605L13.9447 57.034L12.5223 55.9999L11.1 57.034L11.6442 55.3605L10.2193 54.3263H11.9781L12.5223 52.6528Z" fill="#0E3C84"/>
<path d="M69.2843 52.6528L69.8259 54.3263H71.5848L70.1624 55.3605L70.7067 57.034L69.2843 55.9999L67.8593 57.034L68.4036 55.3605L66.9812 54.3263H68.7401L69.2843 52.6528Z" fill="#0E3C84"/>
<path d="M58.4867 28.8735V24.5424H55.876C55.876 24.5424 50.9201 17.3062 41.1768 17.1089V17.0984C41.1084 17.0984 41.0427 17.101 40.9743 17.1036C40.906 17.1036 40.8402 17.0984 40.7719 17.0984V17.1089C31.0259 17.3062 26.2146 24.5424 26.2146 24.5424H23.462V28.8735H26.1673V30.3629H25.0867V35.2361H26.4828V54.1869H23.7328V61.7677H29.6824V64.2043H52.2662V61.7677H58.2159V54.1869H55.2871V35.2361H56.8645V30.3629H55.7813V28.8735H58.4867Z" fill="white"/>
<path d="M26.6879 25.1371C26.6879 25.1371 31.6305 17.5825 41.5369 17.7746C41.5369 17.7746 50.3628 17.7746 55.3055 25.1371H57.9004V28.6025H55.266V30.9128H56.3229V34.8756H54.6771V54.5526H57.6296V61.2704H51.7746V63.5702H30.1767V61.2678H24.227V54.5027L27.2032 54.3658L27.1585 34.944H25.581V30.8602H26.6852V28.6315H24.0036V25.1528L26.6905 25.1397L26.6879 25.1371Z" fill="#1D1D1B"/>
<path d="M31.8461 26.0317H25.0841V27.9263H31.8461V26.0317Z" fill="white"/>
<path d="M56.8645 26.0317H50.1025V27.9263H56.8645V26.0317Z" fill="white"/>
<path d="M30.4422 28.5341H28.239V31.7154H30.4422V28.5341Z" fill="white"/>
<path d="M53.799 28.5341H51.5958V31.7154H53.799V28.5341Z" fill="white"/>
<path d="M49.3033 28.5341H32.4114V30.226H49.3033V28.5341Z" fill="white"/>
<path d="M50.1025 32.8653H31.9118V33.3389H50.1025V32.8653Z" fill="white"/>
<path d="M50.1025 31.8732H31.9118V32.3469H50.1025V31.8732Z" fill="white"/>
<path d="M30.5815 32.0522H27.0112V33.3389H30.5815V32.0522Z" fill="white"/>
<path d="M55.2318 32.0522H51.5669V33.3389H55.2318V32.0522Z" fill="white"/>
<path d="M30.1109 34.0836H28.1943V54.3869H30.1109V34.0836Z" fill="white"/>
<path d="M53.7543 34.0836H51.7483V54.3869H53.7543V34.0836Z" fill="white"/>
<path d="M50.7545 33.9494H31.1231V56.1472H50.7545V33.9494Z" fill="white"/>
<path d="M53.7543 56.8235H27.5844V58.1102H53.7543V56.8235Z" fill="white"/>
<path d="M54.6324 58.6496H26.7063V59.9363H54.6324V58.6496Z" fill="white"/>
<path d="M49.8317 60.8152H31.507V62.1019H49.8317V60.8152Z" fill="white"/>
<path d="M29.9032 25.2213C29.94 25.1607 33.4867 19.8481 41.4055 19.8481C41.4738 19.8481 47.8625 19.6876 51.8193 25.1739L53.9778 25.1265C49.5478 18.7114 41.7105 18.4614 41.4055 18.4614C32.8373 18.4614 27.9998 24.945 27.8315 25.2186H29.9032V25.2213Z" fill="white"/>
<path d="M50.2024 25.1055H31.7015C31.7015 25.1055 35.256 20.7217 41.5317 20.9217C41.5317 20.9217 46.7189 20.9611 50.2024 25.1055Z" fill="white"/>
<path d="M42.2126 20.4822H40.0489V23.6398H42.2126V20.4822Z" fill="#1D1D1B"/>
<path d="M8.05289 33.9152C8.07918 33.5836 8.15543 33.16 8.26322 32.7205C8.44462 31.9917 8.69176 31.5496 9.06246 31.2496C9.45682 30.9233 9.99053 30.7891 10.6688 30.9575C11.4023 31.1391 11.844 31.5312 12.0649 31.9811C12.3015 32.4706 12.3068 33.1258 12.1227 33.8757C12.0123 34.3256 11.9045 34.6388 11.823 34.8466L8.05289 33.9125V33.9152ZM11.3997 33.8178C11.4339 33.7468 11.4654 33.6283 11.4917 33.5205C11.6915 32.7337 11.3866 32.1153 10.469 31.8864C9.67241 31.6838 9.13607 32.0469 8.95204 32.7942C8.90471 32.9889 8.89157 33.1179 8.88894 33.1968L11.3997 33.8178Z" fill="#1D1D1B"/>
<path d="M12.1622 29.9761L13.0087 30.6023L12.6775 31.468L9.42002 28.9262L9.83804 27.8315L13.9657 28.0999L13.6213 28.9998L12.5644 28.9209L12.1595 29.9787L12.1622 29.9761ZM11.8966 28.7999L11.0264 28.7288C10.7819 28.7104 10.4848 28.6709 10.2429 28.642L10.2377 28.6525C10.4375 28.792 10.6951 28.9525 10.8844 29.0946L11.5838 29.6156L11.8966 28.7999Z" fill="#1D1D1B"/>
<path d="M13.7054 24.9897L13.0403 26.2817L13.8737 26.7106L14.6151 25.266L15.2671 25.6002L14.1156 27.8421L10.6031 26.037L11.7178 23.8661L12.3672 24.2003L11.6626 25.5712L12.3909 25.9475L13.056 24.6529L13.7028 24.9844L13.7054 24.9897Z" fill="#1D1D1B"/>
<path d="M17.118 22.4189C17.0444 22.7004 16.863 23.2083 16.5764 23.6425C16.1768 24.245 15.7377 24.5792 15.2434 24.6897C14.7597 24.8055 14.2181 24.6871 13.737 24.3608C12.6433 23.6319 12.546 22.4189 13.2611 21.3348C13.5424 20.9085 13.8421 20.6349 14.0288 20.527L14.5231 21.0795C14.3259 21.2085 14.1129 21.3927 13.8737 21.7532C13.4609 22.3768 13.503 23.0794 14.2181 23.553C14.8964 24.003 15.58 23.8424 15.9848 23.232C16.0979 23.0609 16.1689 22.9109 16.1794 22.832L15.4906 22.3742L15.1541 22.8846L14.573 22.5005L15.3854 21.2716L17.1206 22.4215L17.118 22.4189Z" fill="#1D1D1B"/>
<path d="M15.1488 18.8877L16.8708 20.3744C17.3862 20.819 17.8147 20.848 18.1144 20.5033C18.4194 20.1481 18.3405 19.7376 17.8121 19.2824L16.09 17.7957L16.671 17.122L18.3484 18.5693C19.2712 19.3666 19.3106 20.2112 18.635 20.9927C17.983 21.7479 17.1837 21.8321 16.2294 21.0085L14.5599 19.5665L15.1462 18.8877H15.1488Z" fill="#1D1D1B"/>
<path d="M19.5735 14.4565L22.1369 17.4641L21.4533 18.0456L18.89 15.0354L19.5735 14.4539V14.4565Z" fill="#1D1D1B"/>
<path d="M22.5339 17.0878L20.2466 13.8671L21.0958 13.2619L22.6023 13.9671C23.0334 14.1697 23.5119 14.4355 23.9115 14.6986L23.9247 14.6881C23.575 14.296 23.2516 13.8723 22.9046 13.3856L22.2394 12.4488L22.9072 11.9725L25.1945 15.1933L24.4295 15.7353L22.8599 14.9828C22.4235 14.7749 21.9187 14.5091 21.4928 14.2434L21.4823 14.2565C21.803 14.6696 22.1343 15.117 22.5102 15.6406L23.1991 16.6116L22.5313 17.0878H22.5339Z" fill="#1D1D1B"/>
<path d="M24.7975 11.7515L23.8695 12.262L23.5093 11.6041L26.1699 10.1411L26.5301 10.799L25.5863 11.32L27.1269 14.125L26.3408 14.5565L24.8002 11.7489L24.7975 11.7515Z" fill="#1D1D1B"/>
<path d="M29.7928 11.0568L28.4572 11.6278L28.8253 12.4909L30.3186 11.8515L30.6078 12.5251L28.2916 13.5145L26.7404 9.88063L28.9831 8.92282L29.2696 9.59644L27.8525 10.2016L28.1759 10.9568L29.5115 10.3858L29.7954 11.0542L29.7928 11.0568Z" fill="#1D1D1B"/>
<path d="M29.8112 8.66759C30.0715 8.53865 30.4685 8.37551 30.9233 8.23605C31.4833 8.06238 31.9013 8.02291 32.2352 8.15448C32.5139 8.26499 32.719 8.48866 32.8268 8.83599C32.974 9.31752 32.7374 9.75432 32.4482 9.97272L32.4534 9.98851C32.7479 10.0122 32.9714 10.2201 33.1764 10.5358C33.4262 10.9253 33.697 11.3805 33.8153 11.5042L32.9425 11.7752C32.8452 11.6831 32.6638 11.4068 32.4061 10.9779C32.159 10.5385 31.9565 10.4595 31.6095 10.5621L31.3519 10.6437L31.8119 12.1278L30.968 12.3909L29.8112 8.66759ZM31.1599 10.028L31.4965 9.92273C31.9224 9.79116 32.1064 9.49908 32.0065 9.17017C31.8987 8.82283 31.6095 8.72284 31.2151 8.83862C31.0074 8.90177 30.897 8.95703 30.8366 8.98598L31.1599 10.028Z" fill="#1D1D1B"/>
<path d="M34.0651 11.441L33.3421 7.55453L34.3674 7.36245L35.4375 8.63601C35.7424 9.00176 36.0658 9.44383 36.3182 9.84905H36.334C36.1815 9.34384 36.0658 8.8202 35.958 8.23342L35.7477 7.10195L36.5548 6.95196L37.2752 10.8384L36.355 11.0095L35.2482 9.66486C34.9406 9.29121 34.5935 8.83862 34.3201 8.41761L34.3043 8.4255C34.4226 8.93598 34.5357 9.48067 34.654 10.1148L34.8722 11.2858L34.0651 11.4357V11.441Z" fill="#1D1D1B"/>
<path d="M38.6765 9.71748L38.4556 10.7463L37.5328 10.8016L38.5056 6.78619L39.6755 6.71777L41.1294 10.5911L40.1698 10.649L39.807 9.65433L38.6791 9.72012L38.6765 9.71748ZM39.6361 8.98861L39.3416 8.16763C39.2575 7.93871 39.1708 7.64926 39.0971 7.41771H39.0866C39.0419 7.65453 38.9999 7.95713 38.9499 8.18868L38.7659 9.0386L39.6361 8.98598V8.98861Z" fill="#1D1D1B"/>
<path d="M41.8051 7.44139L40.7456 7.40455L40.7719 6.65462L43.8032 6.76251L43.7769 7.51243L42.699 7.47296L42.5859 10.6727L41.6894 10.6411L41.8025 7.44139H41.8051Z" fill="#1D1D1B"/>
<path d="M45.2282 6.93354L44.797 10.8647L43.9057 10.7674L44.3343 6.83618L45.2255 6.93354H45.2282Z" fill="#1D1D1B"/>
<path d="M49.2849 9.63855C49.0246 10.9095 48.0991 11.5199 46.9686 11.2884C45.8197 11.0542 45.3254 10.049 45.5516 8.94651C45.7882 7.78609 46.7057 7.07037 47.8467 7.30456C49.0351 7.54664 49.5004 8.57023 49.2849 9.63855ZM46.4796 9.12017C46.3245 9.878 46.5716 10.4858 47.1579 10.6042C47.7495 10.7253 48.2017 10.2332 48.3568 9.48067C48.4988 8.786 48.2858 8.12027 47.6837 7.9966C47.0922 7.87556 46.6321 8.36762 46.4796 9.12017Z" fill="#1D1D1B"/>
<path d="M49.2296 11.7278L50.5232 7.9887L51.5091 8.33078L51.8114 9.97009C51.8982 10.4411 51.9586 10.9832 51.977 11.4621L51.9928 11.4673C52.1085 10.9542 52.2662 10.4437 52.4608 9.878L52.8368 8.79126L53.6123 9.05965L52.3214 12.7988L51.4354 12.4909L51.1357 10.7726C51.0516 10.2964 50.9754 9.73064 50.9438 9.22806H50.9254C50.7782 9.72801 50.6073 10.2595 50.3943 10.87L50.0052 11.9962L49.2296 11.7278Z" fill="#1D1D1B"/>
<path d="M54.0987 12.5093L53.3967 13.2961L52.566 12.8856L55.3975 9.87273L56.4491 10.3911L55.8024 14.4802L54.94 14.0565L55.1135 13.0093L54.0987 12.5093ZM55.2923 12.3514L55.4422 11.491C55.4816 11.2489 55.55 10.9542 55.5999 10.7174L55.5894 10.7121C55.4343 10.8963 55.2503 11.1384 55.0899 11.3173L54.5089 11.9673L55.2923 12.3541V12.3514Z" fill="#1D1D1B"/>
<path d="M58.1422 11.3121L58.8994 11.791L57.1931 14.4986L58.5208 15.3354L58.1212 15.9695L56.0337 14.6512L58.1422 11.3094V11.3121Z" fill="#1D1D1B"/>
<path d="M60.4953 16.6221C60.5952 16.8747 60.7897 17.2115 61.0763 17.4641C61.3839 17.7351 61.66 17.7509 61.8308 17.5562C61.9939 17.372 61.9465 17.1405 61.702 16.701C61.3602 16.0958 61.2787 15.538 61.6573 15.1064C62.1043 14.6012 62.8667 14.5854 63.566 15.2012C63.8999 15.4959 64.084 15.7827 64.1918 16.0169L63.566 16.4274C63.4977 16.2642 63.361 15.9958 63.0692 15.738C62.7773 15.4827 62.5223 15.4906 62.3856 15.6459C62.22 15.8353 62.312 16.0669 62.567 16.5484C62.9219 17.2036 62.9272 17.693 62.5591 18.1114C62.12 18.6087 61.3629 18.6982 60.5479 17.9825C60.2087 17.6825 59.9563 17.2957 59.8696 17.0563L60.4953 16.6221Z" fill="#1D1D1B"/>
<path d="M64.105 21.3164C63.9341 21.2506 63.6134 21.0427 63.29 20.6901C62.3646 19.6849 62.5197 18.5877 63.3478 17.822C64.339 16.9089 65.5431 17.1089 66.3529 17.9904C66.6657 18.3324 66.8366 18.6535 66.8813 18.8245L66.2372 19.1718C66.1715 18.985 66.0505 18.7535 65.8376 18.5193C65.3565 17.9956 64.6703 17.8799 64.0235 18.4772C63.4425 19.014 63.3925 19.6955 63.9315 20.2849C64.1129 20.4822 64.36 20.6638 64.5309 20.7454L64.1103 21.3164H64.105Z" fill="#1D1D1B"/>
<path d="M67.9829 20.0823L66.7499 20.9717L67.6096 22.1689L68.8426 21.2795L69.3632 22.0031L66.1557 24.3161L65.6351 23.5925L66.9786 22.6241L66.1189 21.4295L64.7781 22.3952L64.2522 21.6663L67.4597 19.3534L67.9829 20.0823Z" fill="#1D1D1B"/>
<path d="M69.939 27.0106C68.7979 27.6237 67.7332 27.3026 67.1863 26.2843C66.6316 25.2502 67.0864 24.2266 68.0802 23.6951C69.124 23.1346 70.2597 23.382 70.8118 24.4108C71.385 25.4791 70.8986 26.4948 69.939 27.0106ZM68.5429 24.5187C67.862 24.8844 67.5518 25.4633 67.8357 25.9922C68.1196 26.5264 68.7901 26.558 69.4684 26.1948C70.0941 25.8607 70.47 25.2713 70.1782 24.7292C69.8916 24.1977 69.2212 24.1582 68.5429 24.5213V24.5187Z" fill="#1D1D1B"/>
<path d="M71.4559 30.9654C70.2439 31.4233 69.2344 30.9654 68.8269 29.884C68.4141 28.7867 69.0004 27.8315 70.052 27.4368C71.1589 27.0185 72.2526 27.4158 72.6653 28.5078C73.0939 29.6445 72.476 30.5839 71.4586 30.9681L71.4559 30.9654ZM70.399 28.3131C69.676 28.5867 69.2948 29.1183 69.5052 29.6787C69.7181 30.2445 70.378 30.3655 71.0958 30.0945C71.7583 29.8445 72.2079 29.3103 71.9923 28.7341C71.7793 28.1683 71.1168 28.042 70.399 28.3131Z" fill="#1D1D1B"/>
<path d="M73.4646 31.0628L73.6854 31.9338L70.5831 32.7179L70.9669 34.2414L70.2387 34.4256L69.634 32.0311L73.4646 31.0628Z" fill="#1D1D1B"/>
<path d="M32.9477 38.6384H35.0299C35.6636 38.6384 36.1999 38.7094 36.6337 38.8489C37.0359 38.9857 37.3935 39.2278 37.709 39.5751C38.1796 40.0961 38.5161 40.775 38.7186 41.6118C38.921 42.4196 39.0209 43.58 39.0209 45.0904C39.0209 46.4745 38.9078 47.6033 38.687 48.4795C38.4688 49.3163 38.1112 49.9531 37.6117 50.3925C36.9991 50.9425 35.9002 51.2161 34.3148 51.2161H32.9477V38.641V38.6384ZM34.6408 49.7321C35.6714 49.7321 36.3603 49.4189 36.7073 48.7953C37.0649 48.1717 37.2436 46.9586 37.2436 45.1535C37.2436 43.2143 37.0727 41.8828 36.731 41.1539C36.3892 40.4251 35.7635 40.0619 34.8512 40.0619H34.6382V49.7294L34.6408 49.7321Z" fill="#1D1D1B"/>
<path d="M40.7061 38.6384H42.3993V51.2135H40.7061V38.6384Z" fill="#1D1D1B"/>
<path d="M48.5251 38.8989V40.5514C48.0097 40.183 47.5444 39.9988 47.1343 39.9988C46.6899 39.9988 46.3271 40.1567 46.0432 40.4724C45.7619 40.7698 45.6199 41.1697 45.6199 41.6697C45.6199 42.1091 45.7198 42.488 45.9223 42.8011C46.0248 42.9695 46.1957 43.1853 46.4297 43.4537C46.6663 43.7195 46.9713 44.0405 47.3446 44.4141C48.0334 45.1141 48.504 45.7193 48.7511 46.2298C49.0009 46.7244 49.1245 47.3296 49.1245 48.0454C49.1245 49.0163 48.8511 49.8189 48.3016 50.4478C47.7547 51.0609 47.0501 51.3687 46.193 51.3687C45.4727 51.3687 44.8548 51.1714 44.3448 50.7741V49.0979C44.9469 49.5373 45.4937 49.7584 45.988 49.7584C46.4481 49.7584 46.8109 49.6057 47.0712 49.2979C47.3314 48.99 47.4629 48.5743 47.4629 48.048C47.4629 47.5902 47.363 47.1823 47.1632 46.8165C47.0606 46.6429 46.916 46.4429 46.732 46.2192C46.548 45.9929 46.3166 45.743 46.0406 45.4667C45.612 45.043 45.2545 44.6694 44.9732 44.3431C44.6918 44.0168 44.4815 43.7326 44.3474 43.4879C44.0871 43.0116 43.9557 42.4064 43.9557 41.6802C43.9557 40.6987 44.2107 39.9172 44.7208 39.3436C45.2361 38.7621 45.9275 38.4726 46.7951 38.4726C47.3972 38.4726 47.9729 38.6173 48.5198 38.9041L48.5251 38.8989Z" fill="#1D1D1B"/>
<path d="M57.9424 69.9643L57.23 68.6355L55.1766 67.2672L56.0153 66.8172L56.7646 67.4198C56.9933 67.6014 57.1537 67.7382 57.3483 67.9066L57.3588 67.9014C57.322 67.6593 57.2983 67.4304 57.2694 67.1488L57.1774 66.191L58.0003 65.7489L57.9477 68.2171L58.6733 69.5722L57.9424 69.9643Z" fill="#1D1D1B"/>
<path d="M55.3449 69.8959C55.1556 69.4959 54.9321 69.0091 54.7218 68.5145L54.706 68.5197C54.7849 68.9986 54.848 69.5407 54.8848 69.9933L55.0347 71.4931L54.4352 71.7484L53.5177 70.5932C53.2364 70.238 52.9156 69.8038 52.6475 69.3933L52.6369 69.3986C52.8105 69.867 53.0182 70.3958 53.1707 70.83L53.657 72.1457L52.9472 72.4457L51.7247 68.9618L52.7447 68.5276L53.5571 69.5196C53.8279 69.8643 54.1145 70.2459 54.359 70.6116L54.3748 70.6037C54.3038 70.1696 54.2302 69.6722 54.1802 69.2486L54.0645 67.9671L55.0662 67.5435L56.691 70.859L55.9417 71.1774L55.3396 69.8985L55.3449 69.8959Z" fill="#1D1D1B"/>
<path d="M51.6458 71.1852L50.3444 71.5642L50.5889 72.4036L52.0428 71.9799L52.2347 72.6377L49.9763 73.2956L48.9457 69.7538L51.1278 69.117L51.3198 69.7722L49.9395 70.1748L50.1551 70.9116L51.4591 70.5327L51.6484 71.1826L51.6458 71.1852Z" fill="#1D1D1B"/>
<path d="M45.5069 70.5853C45.7961 70.4748 46.1825 70.3669 46.5927 70.2801C47.2789 70.138 47.7468 70.1696 48.1491 70.3564C48.5829 70.5564 48.9115 70.9511 49.043 71.5905C49.1876 72.2825 49.0351 72.8114 48.7485 73.1798C48.433 73.5745 47.8862 73.8455 47.179 73.9929C46.7557 74.0823 46.4507 74.1166 46.243 74.1323L45.5016 70.5853H45.5069ZM46.9423 73.3614C47.016 73.3614 47.129 73.3403 47.2289 73.3193C47.9677 73.1693 48.3673 72.6614 48.1859 71.7983C48.0334 71.0484 47.5129 70.7432 46.8109 70.8905C46.6295 70.93 46.5138 70.9695 46.4481 71.0011L46.9423 73.364V73.3614Z" fill="#1D1D1B"/>
<path d="M43.5219 73.4298L43.3431 74.3955L42.4834 74.4691L43.2853 70.6985L44.3764 70.6064L45.8329 74.1771L44.939 74.256L44.5735 73.3377L43.5245 73.4298H43.5219ZM44.3974 72.7272L44.1003 71.9694C44.0162 71.7562 43.9268 71.4905 43.8532 71.2773H43.8427C43.8058 71.501 43.7769 71.7826 43.7349 72.001L43.585 72.7983L44.3974 72.7272Z" fill="#1D1D1B"/>
<path d="M42.0286 74.4455C41.8708 74.5113 41.5238 74.5797 41.0742 74.5507C39.8044 74.4718 39.1971 73.6324 39.2628 72.5877C39.339 71.3326 40.2776 70.6879 41.3897 70.7563C41.8209 70.7827 42.1443 70.8905 42.2862 70.9774L42.0759 71.6247C41.9103 71.5431 41.6815 71.4642 41.3845 71.4458C40.7246 71.4037 40.1882 71.772 40.1356 72.5877C40.0909 73.3271 40.4985 73.8166 41.2399 73.8639C41.4896 73.8771 41.7709 73.8429 41.9392 73.7876L42.026 74.4428L42.0286 74.4455Z" fill="#1D1D1B"/>
<path d="M36.8309 73.0877L36.4102 73.9745L35.561 73.8245L37.3041 70.388L38.3794 70.5774L38.8684 74.406L37.985 74.2507L37.8694 73.2693L36.8309 73.0877ZM37.8588 72.6351L37.7695 71.8247C37.7432 71.5984 37.7248 71.3168 37.7064 71.0931H37.6958C37.6038 71.2984 37.5013 71.5642 37.4066 71.7615L37.057 72.493L37.8588 72.6351Z" fill="#1D1D1B"/>
<path d="M32.9582 71.901L31.6542 71.5247L31.4123 72.3667L32.8688 72.7851L32.6795 73.4429L30.4212 72.7904L31.4412 69.246L33.626 69.8749L33.4367 70.5327L32.0538 70.1327L31.8409 70.8695L33.1449 71.2458L32.9582 71.8983V71.901Z" fill="#1D1D1B"/>
<path d="M30.2161 70.9669L28.9331 70.5248L28.6492 71.3537L30.082 71.8457L29.8585 72.493L27.637 71.7273L28.8358 68.2408L30.9864 68.9802L30.7629 69.6275L29.4037 69.1591L29.1566 69.8827L30.4396 70.3248L30.2187 70.9669H30.2161Z" fill="#1D1D1B"/>
<path d="M26.4144 67.0988L27.1874 67.4172L26.0542 70.1801L27.4082 70.7379L27.1427 71.3852L25.0158 70.5116L26.4144 67.1014V67.0988Z" fill="#1D1D1B"/>
</g>
<defs>
<radialGradient id="paint0_radial_5776_3170" cx="0" cy="0" r="1" gradientUnits="userSpaceOnUse" gradientTransform="translate(40.9664 41.0013) scale(27.9524 27.9763)">
<stop stop-color="#5BC5F2"/>
<stop offset="1" stop-color="#0069B4"/>
</radialGradient>
<clipPath id="clip0_5776_3170">
<rect width="322" height="82" fill="white"/>
</clipPath>
</defs>
</svg>
